<svg id="Layer_1" data-name="Layer 1" xmlns="http://www.w3.org/2000/svg" viewBox="0 0 272.18 272.18"><defs><style>.cls-1{fill:#231f20;}.cls-2{fill:#ec008c;}.cls-3{fill:#92278f;}.cls-4{fill:#fbb040;}.cls-5{fill:#8dc63f;}.cls-6{fill:#ef5199;}</style></defs><title>ClusterBuster-CIRCLE-icon_rgb-lo</title><path class="cls-1" d="M143.91,12.86A131.77,131.77,0,1,1,12.14,144.63,131.77,131.77,0,0,1,143.91,12.86m0-4.32c-75,0-136.09,61.05-136.09,136.09S68.87,280.72,143.91,280.72,280,219.67,280,144.63,219,8.54,143.91,8.54Z" transform="translate(-7.82 -8.54)"/><circle class="cls-1" cx="136.09" cy="136.09" r="129.61"/><path class="cls-2" d="M143.91,17.18A127.46,127.46,0,1,1,16.46,144.63,127.59,127.59,0,0,1,143.91,17.18m0-4.32A131.77,131.77,0,1,0,275.68,144.63,131.77,131.77,0,0,0,143.91,12.86Z" transform="translate(-7.82 -8.54)"/><path class="cls-3" d="M82.66,222.8a1.41,1.41,0,0,1-.78-.25c-1.55-1.11-15.14-10.83-16.61-12.3s-8.21-14.54-9.54-17.14a1.71,1.71,0,0,1-.13-.38l-3.21-18.22a1.22,1.22,0,0,1,0-.33l1.43-20.73,2.87-17.63a1.58,1.58,0,0,1,.11-.37l11.08-23.23a1.6,1.6,0,0,1,.36-.46L86.81,96.4a1.31,1.31,0,0,1,.55-.28l27.15-6.43a1.26,1.26,0,0,1,.61,0l22.51,5a1.36,1.36,0,0,1,.58.28l15,12.51a1.45,1.45,0,0,1,.26.29l10.72,16.08a1.36,1.36,0,0,1,.2,1l-3.57,20.71a1.35,1.35,0,0,1-2.67-.46l3.49-20.18-10.32-15.47-14.6-12.17L114.84,92.4,88.29,98.68l-18.11,15L59.31,136.44l-2.83,17.32-1.4,20.44,3.15,17.86c3.77,7.37,8.13,15.42,9,16.28,1,1,10.27,7.72,16.27,12a1.36,1.36,0,0,1,.32,1.89A1.38,1.38,0,0,1,82.66,222.8Z" transform="translate(-7.82 -8.54)"/><path class="cls-3" d="M89.81,213.86a1.29,1.29,0,0,1-.6-.14l-14.3-7.15a1.31,1.31,0,0,1-.61-.62L60.72,178.08c0-.09-.07-.18-.1-.27l-3.57-14.65a1.38,1.38,0,0,1,0-.67l10-38.23a1.24,1.24,0,0,1,.21-.45l10-13.94a1.3,1.3,0,0,1,.31-.31l15-10.69a1.35,1.35,0,0,1,.57-.23l27.16-4.32a1.29,1.29,0,0,1,.75.09l15.72,6.79a1.45,1.45,0,0,1,.36.22l17.51,15.37a1.34,1.34,0,0,1,.42.69l3.57,14.3a1.35,1.35,0,0,1-2.62.65l-3.47-13.88-17-15-15.17-6.55-26.46,4.21L79.34,111.63l-9.73,13.55-9.85,37.67L63.22,177l13.31,27.33,13.89,6.94a1.37,1.37,0,0,1,.6,1.82A1.35,1.35,0,0,1,89.81,213.86Z" transform="translate(-7.82 -8.54)"/><path class="cls-3" d="M78.89,215.82a1.3,1.3,0,0,1-1-.41L65.61,202.77a1.24,1.24,0,0,1-.29-.46L57.1,181.12a1.39,1.39,0,0,1-.09-.57l2.41-39a1.58,1.58,0,0,1,.09-.42l9.92-24.57a1.32,1.32,0,0,1,.36-.51L99.28,90a1.36,1.36,0,0,1,1.2-.3l32.87,7.5a1.34,1.34,0,0,1,.5.23l13.22,9.65a1.2,1.2,0,0,1,.26.24l13.22,16.44a1.34,1.34,0,0,1,.29,1l-2.76,23.92a1.35,1.35,0,1,1-2.69-.31l2.7-23.35-12.76-15.86-12.85-9.38-31.93-7.29L71.82,117.9,62.11,142l-2.38,38.45,8,20.66,12.11,12.45a1.35,1.35,0,0,1,0,1.91A1.31,1.31,0,0,1,78.89,215.82Z" transform="translate(-7.82 -8.54)"/><path class="cls-3" d="M70.83,221.62a1.4,1.4,0,0,1-1-.38l-15-14.58a1.36,1.36,0,0,1-.41-1l1-34.56a1.59,1.59,0,0,1,.07-.39l8.54-25.61,5.81-20.56a1.46,1.46,0,0,1,.16-.36l16-24.93a1.34,1.34,0,0,1,.87-.6l30.82-6.09a1.42,1.42,0,0,1,.79.08l25.82,11a1.38,1.38,0,0,1,.33.2L163.09,119a1.34,1.34,0,0,1,.48.84l2.3,15.52a1.37,1.37,0,0,1-1.15,1.54,1.33,1.33,0,0,1-1.53-1.14l-2.22-15L143.2,106.08l-25.26-10.8L88.1,101.19,72.49,125.46l-5.78,20.42-8.49,25.49-1,33.77L71.77,219.3a1.35,1.35,0,0,1,0,1.91A1.37,1.37,0,0,1,70.83,221.62Z" transform="translate(-7.82 -8.54)"/><path class="cls-3" d="M89.15,218.7a1.22,1.22,0,0,1-.55-.12l-28.32-12.7a1.33,1.33,0,0,1-.73-.81l-7.12-21.44a1.47,1.47,0,0,1-.06-.59L56,153.92l5.65-22.48a1.62,1.62,0,0,1,.25-.51L91.84,93a1.35,1.35,0,0,1,1.36-.48l34.15,7.7a1.86,1.86,0,0,1,.37.14l29.35,16.66a1.38,1.38,0,0,1,.67.94l3.09,17.49a1.35,1.35,0,1,1-2.66.47l-3-16.86-28.63-16.24L93.43,95.38l-29.27,37-5.56,22-3.5,28.66,6.83,20.59,27.78,12.46a1.35,1.35,0,0,1-.56,2.58Z" transform="translate(-7.82 -8.54)"/><path class="cls-4" d="M152.66,174.14a1.1,1.1,0,0,1-.26,0l-17.07-3.33a1.37,1.37,0,0,1-.64-.31l-5-4.37a1.37,1.37,0,0,1-.46-1v-8.86a1.34,1.34,0,0,1,.17-.65l2.29-4.19a1.34,1.34,0,0,1,.85-.66L143.37,148a1.24,1.24,0,0,1,.33,0h4.79a1.36,1.36,0,0,1,0,2.71h-4.61l-10.1,2.58-1.84,3.37v7.91l4.26,3.72,16.19,3.16,9.67-6,8.44-15.28,2-17.58-5.93-20.85L156.23,91.79,135.84,69.6,119.57,57.22,95.24,50.68l-30.62,1a1.32,1.32,0,0,1-1.39-1.3,1.35,1.35,0,0,1,1.3-1.4l30.82-1a1.11,1.11,0,0,1,.4,0l24.78,6.66a1.53,1.53,0,0,1,.46.23l16.66,12.71,20.7,22.48a1.37,1.37,0,0,1,.2.29l10.51,20.15a2,2,0,0,1,.1.26l6,21.24a1.31,1.31,0,0,1,0,.52l-2.08,18.12a1.54,1.54,0,0,1-.16.5L164.25,167a1.33,1.33,0,0,1-.47.5l-10.41,6.45A1.39,1.39,0,0,1,152.66,174.14Z" transform="translate(-7.82 -8.54)"/><path class="cls-4" d="M149.53,177.48a1.61,1.61,0,0,1-.43-.07l-17.48-5.83a1.35,1.35,0,0,1-.87-.9l-4.17-14.07a1.36,1.36,0,0,1,.32-1.32l6-6.34a1.35,1.35,0,0,1,2,1.87l-5.5,5.77,3.74,12.64,16.33,5.45,14.1-6.07,14.32-25.67-3.22-18.29L164.18,98.53,147.65,78.28l-24-20.9-16.23-5.53L83.5,47.52A1.35,1.35,0,1,1,84,44.86l24.12,4.37,16.67,5.68a1.24,1.24,0,0,1,.46.26l24.36,21.24L166.41,97a1.33,1.33,0,0,1,.2.35l10.62,26.44a1.38,1.38,0,0,1,.08.27L180.64,143a1.32,1.32,0,0,1-.15.89l-14.78,26.49a1.41,1.41,0,0,1-.65.58l-15,6.45A1.25,1.25,0,0,1,149.53,177.48Z" transform="translate(-7.82 -8.54)"/><path class="cls-4" d="M153.91,180.81a1.35,1.35,0,0,1-.67-.18L125.55,165a1.36,1.36,0,0,1-.52-1.84,1.34,1.34,0,0,1,1.84-.52l26.79,15.1,20.69-21.38,7.06-26.14-12.69-26.62-17.28-24L130.91,61.21,100,56.06a1.35,1.35,0,0,1-1.11-1.55,1.33,1.33,0,0,1,1.56-1.11l31.33,5.2a1.39,1.39,0,0,1,.69.33l20.92,18.74a1.42,1.42,0,0,1,.2.22L171,102.25l13,27.27a1.39,1.39,0,0,1,.09.94l-7.29,27a1.31,1.31,0,0,1-.34.58L154.88,180.4A1.4,1.4,0,0,1,153.91,180.81Z" transform="translate(-7.82 -8.54)"/><path class="cls-4" d="M168.69,174.14h-.13L125,170a1.33,1.33,0,0,1-1.21-1.2l-2.09-20a1.35,1.35,0,1,1,2.69-.28l2,18.88,41.63,4,10.68-15.45L167.63,96.25,141.79,65.43,96.41,46.11,74,47.54a1.42,1.42,0,0,1-1.44-1.26,1.35,1.35,0,0,1,1.26-1.44l22.7-1.45a1.33,1.33,0,0,1,.62.1l46,19.57a1.48,1.48,0,0,1,.51.38l26.28,31.34a1.37,1.37,0,0,1,.3.63L181.47,156a1.33,1.33,0,0,1-.22,1L169.8,173.56A1.34,1.34,0,0,1,168.69,174.14Z" transform="translate(-7.82 -8.54)"/><path class="cls-2" d="M177,240.78l-.18,0-30.4-3.95a1.2,1.2,0,0,1-.47-.16l-40-21.86a1.32,1.32,0,0,1-.58-.63L91.87,184.39a1.44,1.44,0,0,1-.1-.79L98.85,143a1.42,1.42,0,0,1,.44-.79l24.78-21.61a1.37,1.37,0,0,1,1.3-.27l28.32,8.95a1.35,1.35,0,0,1,.94,1.21L156.3,157a1.36,1.36,0,0,1-1.27,1.43,1.3,1.3,0,0,1-1.43-1.26L152,131.53l-26.71-8.44-23.85,20.8-6.92,39.76,13.14,29L147,234.16,176.89,238l21-6.87,13.71-14.74a1.35,1.35,0,1,1,2,1.84l-13.94,15a1.46,1.46,0,0,1-.58.36l-21.65,7.08A1.54,1.54,0,0,1,177,240.78Z" transform="translate(-7.82 -8.54)"/><path class="cls-2" d="M164.53,242.6a1.34,1.34,0,0,1-.4-.06L125,230.72a1.28,1.28,0,0,1-.5-.27L96.17,205.67a1.37,1.37,0,0,1-.45-.82L90.31,169a1.32,1.32,0,0,1,.17-.89l27.59-47.26a1.35,1.35,0,0,1,1.31-.67L152,123.77a1.34,1.34,0,0,1,1.19,1.14l4.37,29a1.35,1.35,0,0,1-1.13,1.54,1.37,1.37,0,0,1-1.54-1.14l-4.22-27.94L120,123,93.06,169.1,98.32,204l27.73,24.26,38.58,11.65,35.52-4.9,32.17-7.07a1.35,1.35,0,1,1,.58,2.64l-32.27,7.09-35.92,5Z" transform="translate(-7.82 -8.54)"/><path class="cls-2" d="M161.19,235.15a1.27,1.27,0,0,1-.54-.11l-44.14-19.33a1.34,1.34,0,0,1-.59-.49L99.06,189.78a1.28,1.28,0,0,1-.21-.53l-7.08-43.52a1.36,1.36,0,0,1,.4-1.19l27.69-26.45a1.38,1.38,0,0,1,.94-.37H146a1.35,1.35,0,0,1,1.28.91c1.13,3.26,11.06,31.92,11.38,33a1.35,1.35,0,0,1-2.6.76c-.26-.9-7.76-22.58-11-32H121.34L94.56,146l6.91,42.53L118,213.39l43.49,19.05,48-2.07a1.4,1.4,0,0,1,1.41,1.29,1.35,1.35,0,0,1-1.29,1.41l-48.31,2.08Z" transform="translate(-7.82 -8.54)"/><path class="cls-2" d="M150.16,242.6a1.29,1.29,0,0,1-.58-.13l-35.61-17a1.27,1.27,0,0,1-.48-.38l-22.9-28.94a1.37,1.37,0,0,1-.3-.84V157.07a1.37,1.37,0,0,1,.19-.68l20.2-34.46a1.33,1.33,0,0,1,1.12-.67l28.73-1a.8.8,0,0,1,.27,0l8.75,1.45a1.37,1.37,0,0,1,1,.72l6.87,13.32A1.36,1.36,0,1,1,155,137l-6.55-12.72-7.95-1.32-27.85,1L93,157.44v37.37l22.42,28.33,35,16.74,54.44-1.81a1.28,1.28,0,0,1,1.39,1.31,1.35,1.35,0,0,1-1.3,1.4L150.2,242.6Z" transform="translate(-7.82 -8.54)"/><path class="cls-5" d="M176.39,200.38h0l-48.1-1.65a1.33,1.33,0,0,1-1-.53l-19.36-25.42a1.33,1.33,0,0,1-.26-1.07l4.79-25.61a1.35,1.35,0,0,1,1-1.06l28.89-7.7a1.29,1.29,0,0,1,1.26.31L153.78,147a1.36,1.36,0,0,1-1.83,2l-9.7-8.87-27.36,7.3-4.52,24.18L129,196.05l47,1.61,21.72-18.08,18.07-27.36,6.56-35.13L218,94.3l-6.58-13.58a1.35,1.35,0,0,1,2.43-1.18l6.67,13.75a1.23,1.23,0,0,1,.11.34L225,116.84a1.4,1.4,0,0,1,0,.5L218.33,153a1.33,1.33,0,0,1-.21.49L199.8,181.24a1.48,1.48,0,0,1-.26.3l-22.28,18.53A1.36,1.36,0,0,1,176.39,200.38Z" transform="translate(-7.82 -8.54)"/><path class="cls-5" d="M162.13,205h-.21l-40.08-6.23a1.34,1.34,0,0,1-1-.74l-15.44-31a1.34,1.34,0,0,1,.19-1.49l28.14-32.06a1.37,1.37,0,0,1,1.9-.14L147.08,143a1.35,1.35,0,0,1-1.76,2.06l-10.43-8.91-26.67,30.37L123,196.15l38.81,6,38.34-30.26,14.56-29.17,5.17-27.68,2.49-21.35A1.35,1.35,0,1,1,225,94l-2.5,21.45-5.23,28a1.65,1.65,0,0,1-.11.36L202.38,173.4a1.33,1.33,0,0,1-.37.45l-39,30.82A1.36,1.36,0,0,1,162.13,205Z" transform="translate(-7.82 -8.54)"/><path class="cls-5" d="M169.73,195h0l-38.21-1.25a1.38,1.38,0,0,1-1-.45L111.46,172a1.38,1.38,0,0,1-.34-1l2.09-22.38a1.34,1.34,0,0,1,.69-1.06l18.74-10.31a1.37,1.37,0,0,1,1.33,0l8.22,4.75a1.35,1.35,0,1,1-1.35,2.34L133.28,140l-17.44,9.59-2,21.08L132.14,191l37.14,1.22,28.51-22.4L208.27,147l7.36-23.94-2.27-27.33a1.35,1.35,0,1,1,2.69-.22l2.29,27.58a1.25,1.25,0,0,1-.05.51L210.79,148l-10.68,23.27a1.38,1.38,0,0,1-.39.5l-29.15,22.91A1.36,1.36,0,0,1,169.73,195Z" transform="translate(-7.82 -8.54)"/><path class="cls-5" d="M149.12,196.42a1.26,1.26,0,0,1-.6-.14L130,187.12a1.38,1.38,0,0,1-.51-.45l-15.2-22.28a1.37,1.37,0,0,1,0-1.6l16.14-20.45a1.36,1.36,0,0,1,1.9-.22,1.34,1.34,0,0,1,.22,1.9l-15.52,19.67,14.44,21.17,17.71,8.75,27.13-9.32,27.46-22.94,9.86-23.85,14-27.07a1.36,1.36,0,0,1,2.41,1.25l-13.95,27-10,24.05a1.3,1.3,0,0,1-.38.52l-27.91,23.32a1.18,1.18,0,0,1-.42.24l-27.9,9.58A1.35,1.35,0,0,1,149.12,196.42Z" transform="translate(-7.82 -8.54)"/><path class="cls-5" d="M133.29,205a1.34,1.34,0,0,1-1.19-.72l-17.91-34.15a1.35,1.35,0,0,1,0-1.16l14.16-32.7a1.36,1.36,0,0,1,2.49,1.08l-13.91,32.1L134,202l25.73-6.73,38.44-32.9,8.63-21.55a1.35,1.35,0,1,1,2.51,1l-8.75,21.87a1.38,1.38,0,0,1-.37.52l-38.94,33.32a1.33,1.33,0,0,1-.54.28l-27.06,7.08A1.39,1.39,0,0,1,133.29,205Z" transform="translate(-7.82 -8.54)"/><path class="cls-6" d="M140.58,166.86a1.34,1.34,0,0,1-1.33-1.14l-1.88-11.42a1.35,1.35,0,0,1,2.67-.44l1.67,10.2,42.13-3.18L201,124.45l-2.26-23L189,61.14,152.37,46.62a1.35,1.35,0,0,1,1-2.52l37.28,14.79a1.35,1.35,0,0,1,.81.94l10,41.22,2.32,23.51a1.35,1.35,0,0,1-.13.71L186,162.75a1.35,1.35,0,0,1-1.12.77l-44.15,3.33Z" transform="translate(-7.82 -8.54)"/><path class="cls-6" d="M176.19,168.73l-.26,0L136.16,161a1.35,1.35,0,1,1,.51-2.65l38.86,7.53L190.1,142.7l6-37.24-6.92-33.67-26.64-17.9-31.34-9a1.37,1.37,0,0,1-.93-1.68,1.35,1.35,0,0,1,1.68-.92l31.54,9.11a1.38,1.38,0,0,1,.39.18L191.1,69.85a1.32,1.32,0,0,1,.57.85l7.08,34.46a1.35,1.35,0,0,1,0,.49l-6,37.75a1.13,1.13,0,0,1-.19.5l-15.2,24.2A1.34,1.34,0,0,1,176.19,168.73Z" transform="translate(-7.82 -8.54)"/><path class="cls-6" d="M164.53,171a1.5,1.5,0,0,1-.37-.05l-28.53-8.12a1.35,1.35,0,0,1-.93-1.67,1.33,1.33,0,0,1,1.67-.93l27.69,7.88,24.93-29V100.3L175.74,75l-28.3-22.72a1.35,1.35,0,1,1,1.69-2.11L177.66,73a1.47,1.47,0,0,1,.35.43l13.54,25.87a1.39,1.39,0,0,1,.15.63v39.61a1.35,1.35,0,0,1-.33.88l-25.82,30.09A1.36,1.36,0,0,1,164.53,171Z" transform="translate(-7.82 -8.54)"/><path class="cls-6" d="M160.36,171.54h-.15l-17.75-2a1.39,1.39,0,0,1-1.07-.76L136,157.66a1.35,1.35,0,1,1,2.44-1.17l5,10.46,16.5,1.84,26.92-18.52,9.11-25.1-4.1-30.94-20.13-49a1.36,1.36,0,1,1,2.51-1l20.19,49.14a1,1,0,0,1,.09.34l4.17,31.44a1.52,1.52,0,0,1-.07.64l-9.37,25.82a1.42,1.42,0,0,1-.51.65L161.13,171.3A1.35,1.35,0,0,1,160.36,171.54Z" transform="translate(-7.82 -8.54)"/><path class="cls-6" d="M152.86,176a1.36,1.36,0,0,1-.85-.3l-14.15-11.47a1.35,1.35,0,0,1,1.7-2.11L153,173.08l30.25-15.44L196,130.55l-3.65-19.72L172.65,65.47a1.36,1.36,0,0,1,2.49-1.08l19.78,45.5a1,1,0,0,1,.08.29l3.75,20.31a1.3,1.3,0,0,1-.1.82l-13.12,27.9a1.38,1.38,0,0,1-.61.63l-31.44,16A1.38,1.38,0,0,1,152.86,176Z" transform="translate(-7.82 -8.54)"/></svg>