<svg xmlns="http://www.w3.org/2000/svg" viewBox="0 0 238.71 263.45" data-name="cluster-buster-arm-3" data-arm="magenta" data-color="#ec008c">
  <g fill="#ec008c">
    <path d="M188.63,273.79l-.23,0-40-5.2a1.51,1.51,0,0,1-.62-.2L95.23,239.63a1.73,1.73,0,0,1-.77-.83L76.71,199.66a1.73,1.73,0,0,1-.13-1l9.31-53.43a1.73,1.73,0,0,1,.58-1L119,115.75a1.81,1.81,0,0,1,1.7-.35L158,127.17a1.78,1.78,0,0,1,1.24,1.58l2.18,34.9a1.78,1.78,0,0,1-1.66,1.89,1.71,1.71,0,0,1-1.88-1.67l-2.12-33.68-35.1-11.1L89.28,146.43l-9.1,52.26L97.45,236.8l51.78,28.29,39.23,5.1,27.65-9,18-19.38a1.78,1.78,0,0,1,2.61,2.43L218.4,263.92a1.79,1.79,0,0,1-.75.48l-28.47,9.3A1.67,1.67,0,0,1,188.63,273.79Z" transform="translate(-24.78 -12.74)"/>
    <path d="M172.21,276.19a1.75,1.75,0,0,1-.51-.08l-51.46-15.53a1.87,1.87,0,0,1-.66-.37L82.36,227.64a1.82,1.82,0,0,1-.59-1.07l-7.11-47.08a1.69,1.69,0,0,1,.22-1.16l36.27-62.13a1.71,1.71,0,0,1,1.72-.87L155.71,120a1.77,1.77,0,0,1,1.56,1.5L163,159.56a1.77,1.77,0,1,1-3.51.53L154,123.37,113.64,119,78.26,179.58l6.93,45.81,36.45,31.89,50.71,15.32L219,266.15l42.29-9.29a1.78,1.78,0,1,1,.76,3.48l-42.42,9.31-47.22,6.52Z" transform="translate(-24.78 -12.74)"/>
    <path d="M167.83,266.4a1.71,1.71,0,0,1-.71-.15l-58-25.41a1.8,1.8,0,0,1-.77-.65L86.15,206.76a1.82,1.82,0,0,1-.27-.7l-9.3-57.21a1.78,1.78,0,0,1,.52-1.57l36.41-34.76a1.8,1.8,0,0,1,1.22-.49h33.12a1.78,1.78,0,0,1,1.68,1.2c1.49,4.29,14.54,42,15,43.42a1.78,1.78,0,0,1-3.42,1c-.34-1.18-10.2-29.68-14.49-42H115.45L80.24,149.21l9.09,55.9L111,237.79l57.17,25,63.08-2.72a1.85,1.85,0,0,1,1.86,1.7,1.78,1.78,0,0,1-1.7,1.85l-63.5,2.74Z" transform="translate(-24.78 -12.74)"/>
    <path d="M153.33,276.19a1.71,1.71,0,0,1-.77-.18l-46.8-22.37a1.82,1.82,0,0,1-.63-.5L75,215.09a1.8,1.8,0,0,1-.38-1.11V163.76a1.78,1.78,0,0,1,.24-.9l26.55-45.3a1.78,1.78,0,0,1,1.47-.87l37.77-1.37a1.43,1.43,0,0,1,.36,0l11.49,1.91a1.8,1.8,0,0,1,1.29.94l9,17.52a1.78,1.78,0,1,1-3.16,1.63l-8.62-16.72-10.44-1.74L104,120.2l-25.82,44v49.13l29.47,37.23,46,22,71.55-2.39a1.69,1.69,0,0,1,1.84,1.72,1.79,1.79,0,0,1-1.72,1.84l-72,2.4Z" transform="translate(-24.78 -12.74)"/>
  </g>
</svg>
