<svg xmlns="http://www.w3.org/2000/svg" viewBox="0 0 238.71 263.45" data-name="cluster-buster-arm-4" data-arm="green" data-color="#8dc63f">
  <g fill="#8dc63f">
    <path d="M187.81,220.69h-.06l-63.23-2.17a1.76,1.76,0,0,1-1.35-.7L97.72,184.41a1.74,1.74,0,0,1-.33-1.41l6.29-33.66A1.74,1.74,0,0,1,105,148l38-10.13a1.74,1.74,0,0,1,1.65.4l13.48,12.32a1.78,1.78,0,1,1-2.4,2.63l-12.76-11.66L107,151.09,101,182.88,125.49,215l61.71,2.11,28.56-23.76,23.74-36,8.63-46.17-5.64-30L233.83,63.4A1.78,1.78,0,0,1,237,61.85l8.76,18.06a2.59,2.59,0,0,1,.14.45l5.75,30.52a1.83,1.83,0,0,1,0,.66l-8.76,46.85a1.68,1.68,0,0,1-.26.65l-24.09,36.49a1.59,1.59,0,0,1-.34.39L189,220.28A1.75,1.75,0,0,1,187.81,220.69Z" transform="translate(-24.78 -12.74)"/>
    <path d="M169.06,226.71l-.27,0L116.1,218.5a1.77,1.77,0,0,1-1.32-1L94.49,176.73a1.78,1.78,0,0,1,.25-2l37-42.14a1.79,1.79,0,0,1,2.49-.18l15.06,12.85A1.78,1.78,0,0,1,147,148L133.25,136.3l-35,39.92,19.35,38.91,51,7.93L219,183.27l19.14-38.34,6.8-36.37,3.27-28.08a1.78,1.78,0,1,1,3.53.42l-3.28,28.19-6.87,36.74a2,2,0,0,1-.15.47L222,185.22a1.78,1.78,0,0,1-.49.6l-51.31,40.51A1.8,1.8,0,0,1,169.06,226.71Z" transform="translate(-24.78 -12.74)"/>
    <path d="M179.05,213.57H179l-50.22-1.64a1.79,1.79,0,0,1-1.26-.59l-25.05-27.92a1.75,1.75,0,0,1-.44-1.35l2.73-29.42a1.81,1.81,0,0,1,.92-1.4l24.63-13.54a1.81,1.81,0,0,1,1.75,0l10.8,6.24a1.78,1.78,0,0,1-1.77,3.08l-9.94-5.74-22.93,12.62-2.58,27.71,24,26.77,48.81,1.6,37.47-29.45,13.78-30,9.67-31.47-3-35.92a1.78,1.78,0,1,1,3.54-.29l3,36.26a1.54,1.54,0,0,1-.07.67l-9.85,32-14,30.6a1.86,1.86,0,0,1-.52.66L180.15,213.2A1.8,1.8,0,0,1,179.05,213.57Z" transform="translate(-24.78 -12.74)"/>
    <path d="M152,215.49a1.7,1.7,0,0,1-.79-.19l-24.36-12a1.69,1.69,0,0,1-.68-.59l-20-29.29a1.77,1.77,0,0,1,.07-2.1l21.21-26.88a1.78,1.78,0,0,1,2.8,2.2l-20.41,25.86,19,27.82,23.28,11.51,35.66-12.25,36.09-30.16,13-31.34,18.41-35.59a1.78,1.78,0,0,1,3.16,1.64L240,139.53,227,171.15a1.77,1.77,0,0,1-.5.68l-36.68,30.65a1.85,1.85,0,0,1-.56.32l-36.68,12.59A1.59,1.59,0,0,1,152,215.49Z" transform="translate(-24.78 -12.74)"/>
    <path d="M131.16,226.71a1.8,1.8,0,0,1-1.58-1L106,180.87a1.75,1.75,0,0,1-.05-1.53l18.61-43a1.78,1.78,0,1,1,3.26,1.41L109.59,180l22.48,42.89L165.89,214l50.54-43.24,11.34-28.33a1.78,1.78,0,1,1,3.3,1.32l-11.5,28.74a1.86,1.86,0,0,1-.49.69L167.89,217a1.82,1.82,0,0,1-.7.37l-35.58,9.3A1.8,1.8,0,0,1,131.16,226.71Z" transform="translate(-24.78 -12.74)"/>
  </g>
</svg>
