<svg xmlns="http://www.w3.org/2000/svg" viewBox="0 0 238.71 263.45" data-name="cluster-buster-arm-2" data-arm="amber" data-color="#fbb040">
  <g fill="#fbb040">
    <path d="M156.61,186.2a1.87,1.87,0,0,1-.34,0l-22.44-4.38a1.71,1.71,0,0,1-.83-.41l-6.57-5.74a1.78,1.78,0,0,1-.61-1.34V162.65a1.75,1.75,0,0,1,.22-.86l3-5.5a1.76,1.76,0,0,1,1.12-.87l14.23-3.65a2.12,2.12,0,0,1,.44-.05h6.29a1.78,1.78,0,1,1,0,3.55h-6.06l-13.27,3.41-2.43,4.42v10.39l5.61,4.9,21.28,4.15L169,174.67l11.09-20.08,2.66-23.12-7.79-27.4L161.31,78,134.5,48.78,113.11,32.5l-32-8.59L40.89,25.26a1.75,1.75,0,0,1-1.84-1.71,1.79,1.79,0,0,1,1.72-1.84l40.51-1.37a1.57,1.57,0,0,1,.52.06l32.57,8.76a1.7,1.7,0,0,1,.62.3l21.89,16.7,27.21,29.56a2.16,2.16,0,0,1,.27.38l13.81,26.49a1.89,1.89,0,0,1,.13.33l7.94,27.92a2,2,0,0,1,.06.69l-2.74,23.81a1.89,1.89,0,0,1-.21.66l-11.5,20.8a1.68,1.68,0,0,1-.62.65l-13.68,8.48A1.77,1.77,0,0,1,156.61,186.2Z" transform="translate(-24.78 -12.74)"/>
    <path d="M152.5,190.58a1.77,1.77,0,0,1-.56-.09l-23-7.66a1.78,1.78,0,0,1-1.14-1.19l-5.48-18.49a1.78,1.78,0,0,1,.42-1.73l7.94-8.33a1.78,1.78,0,0,1,2.57,2.45L126,163.13,131,179.75l21.47,7.15,18.53-8,18.83-33.73-4.24-24L171.76,86.81,150,60.19,118.48,32.72,97.15,25.44,65.7,19.76a1.78,1.78,0,1,1,.63-3.5L98,22,120,29.47a1.66,1.66,0,0,1,.59.34l32,27.92,22.1,27a1.64,1.64,0,0,1,.27.46l14,34.76a1.4,1.4,0,0,1,.1.35l4.38,24.85a1.79,1.79,0,0,1-.19,1.18l-19.44,34.82a1.75,1.75,0,0,1-.85.76l-19.71,8.49A1.86,1.86,0,0,1,152.5,190.58Z" transform="translate(-24.78 -12.74)"/>
    <path d="M158.25,195a1.8,1.8,0,0,1-.87-.23L121,174.2a1.77,1.77,0,1,1,1.74-3.09L157.93,191l27.19-28.11,9.29-34.36-16.69-35L155,61.91,128,37.75,87.34,31a1.78,1.78,0,0,1,.59-3.51l41.19,6.84a1.93,1.93,0,0,1,.9.43l27.51,24.64a1.67,1.67,0,0,1,.25.28l23,32,17.13,35.85a1.74,1.74,0,0,1,.11,1.23l-9.58,35.45a1.74,1.74,0,0,1-.43.77l-28.47,29.42A1.79,1.79,0,0,1,158.25,195Z" transform="translate(-24.78 -12.74)"/>
    <path d="M177.68,186.2h-.17l-57.2-5.47a1.79,1.79,0,0,1-1.6-1.59L116,152.86a1.78,1.78,0,0,1,3.54-.37l2.59,24.83,54.72,5.23,14-20.3L176.3,83.81l-34-40.52L82.68,17.9,53.26,19.79a1.89,1.89,0,0,1-1.89-1.66A1.79,1.79,0,0,1,53,16.24l29.84-1.92a1.87,1.87,0,0,1,.81.14L144.1,40.19a1.82,1.82,0,0,1,.67.49l34.55,41.2a1.83,1.83,0,0,1,.39.82l14.77,79.63a1.75,1.75,0,0,1-.28,1.33l-15,21.77A1.79,1.79,0,0,1,177.68,186.2Z" transform="translate(-24.78 -12.74)"/>
  </g>
</svg>
