<svg xmlns="http://www.w3.org/2000/svg" viewBox="0 0 238.71 263.45" data-name="cluster-buster-arm-1" data-arm="purple" data-color="#92278f">
  <g fill="#92278f">
    <path d="M64.6,250.16a1.82,1.82,0,0,1-1-.33c-2-1.46-19.9-14.24-21.83-16.17S31,214.55,29.2,211.14a2.27,2.27,0,0,1-.17-.5l-4.23-24a2.1,2.1,0,0,1,0-.43L26.66,159l3.78-23.18a1.34,1.34,0,0,1,.15-.48l14.56-30.53a1.85,1.85,0,0,1,.47-.61L70.05,84a2,2,0,0,1,.72-.36l35.7-8.45a1.66,1.66,0,0,1,.8,0l29.59,6.58a1.8,1.8,0,0,1,.76.37l19.72,16.44a1.8,1.8,0,0,1,.35.38l14.09,21.14a1.78,1.78,0,0,1,.27,1.29l-4.69,27.22a1.81,1.81,0,0,1-2.06,1.45,1.78,1.78,0,0,1-1.45-2.06l4.57-26.52-13.55-20.33-19.2-16-28.77-6.4L72,87,48.19,106.69,33.91,136.64l-3.72,22.77-1.85,26.86,4.15,23.48c5,9.68,10.68,20.27,11.77,21.4,1.3,1.3,13.49,10.15,21.38,15.78a1.78,1.78,0,0,1-1,3.23Z" transform="translate(-24.78 -12.74)"/>
    <path d="M74,238.41a1.77,1.77,0,0,1-.8-.19l-18.79-9.39a1.74,1.74,0,0,1-.8-.81L35.76,191.38a2.6,2.6,0,0,1-.13-.36l-4.69-19.26a1.71,1.71,0,0,1,0-.87l13.15-50.26a1.78,1.78,0,0,1,.28-.59l13.15-18.32a1.81,1.81,0,0,1,.42-.41L77.67,87.25a1.7,1.7,0,0,1,.75-.3l35.7-5.68a1.75,1.75,0,0,1,1,.12l20.67,8.93a1.75,1.75,0,0,1,.47.29l23,20.2a1.83,1.83,0,0,1,.55.91l4.7,18.79a1.78,1.78,0,0,1-3.46.86l-4.56-18.25L134.11,93.47l-19.94-8.61L79.39,90.39,60.24,104,47.45,121.84l-13,49.51L39,190l17.5,35.93L74.79,235a1.78,1.78,0,0,1-.79,3.37Z" transform="translate(-24.78 -12.74)"/>
    <path d="M59.64,241a1.79,1.79,0,0,1-1.28-.54L42.19,223.83a1.65,1.65,0,0,1-.38-.6L31,195.37a1.6,1.6,0,0,1-.12-.75l3.16-51.22a2,2,0,0,1,.12-.55l13-32.3a1.67,1.67,0,0,1,.47-.67L86.44,75.59a1.75,1.75,0,0,1,1.58-.4l43.22,9.86a1.67,1.67,0,0,1,.65.3L149.27,98a2.05,2.05,0,0,1,.34.32L167,120a1.8,1.8,0,0,1,.38,1.32l-3.63,31.44a1.8,1.8,0,0,1-2,1.56,1.78,1.78,0,0,1-1.56-2l3.54-30.7L147,100.76,130.09,88.43l-42-9.57L50.35,112.27,37.58,143.91l-3.12,50.54L45,221.61,60.91,238a1.77,1.77,0,0,1-1.27,3Z" transform="translate(-24.78 -12.74)"/>
    <path d="M49,248.61a1.78,1.78,0,0,1-1.24-.51L28.1,228.94a1.74,1.74,0,0,1-.54-1.32l1.37-45.44a1.52,1.52,0,0,1,.09-.51L40.24,148l7.64-27a1.74,1.74,0,0,1,.22-.48L69.17,87.74A1.75,1.75,0,0,1,70.32,87l40.51-8a1.75,1.75,0,0,1,1,.11l33.94,14.5a1.57,1.57,0,0,1,.43.27l24.09,19.83a1.79,1.79,0,0,1,.63,1.11l3,20.4a1.78,1.78,0,0,1-1.5,2,1.76,1.76,0,0,1-2-1.5L167.54,116,144.18,96.73,111,82.54,71.75,90.3,51.23,122.21l-7.59,26.84-11.16,33.5-1.34,44.39,19.14,18.61A1.78,1.78,0,0,1,49,248.61Z" transform="translate(-24.78 -12.74)"/>
    <path d="M73.13,244.78a1.75,1.75,0,0,1-.73-.16l-37.22-16.7a1.79,1.79,0,0,1-1-1.06l-9.35-28.19a1.68,1.68,0,0,1-.08-.77l4.7-38.29,7.43-29.54a1.91,1.91,0,0,1,.33-.67L76.66,79.59A1.77,1.77,0,0,1,78.45,79l44.89,10.12a2,2,0,0,1,.48.19l38.6,21.9a1.78,1.78,0,0,1,.87,1.24l4.06,23a1.78,1.78,0,1,1-3.5.61l-3.92-22.16L122.3,92.5,78.76,82.67,40.28,131.31,33,160.26l-4.61,37.67,9,27.07,36.51,16.37a1.78,1.78,0,0,1-.73,3.41Z" transform="translate(-24.78 -12.74)"/>
  </g>
</svg>
