<svg xmlns="http://www.w3.org/2000/svg" viewBox="0 0 238.71 263.45" data-name="cluster-buster-arm-5" data-arm="rose" data-color="#ef5199">
  <g fill="#ef5199">
    <path d="M140.74,176.62a1.77,1.77,0,0,1-1.76-1.49l-2.46-15a1.78,1.78,0,1,1,3.51-.58l2.2,13.41,55.36-4.18,22.62-47.89-3-30.16L204.37,37.66,156.23,18.57a1.78,1.78,0,1,1,1.31-3.31l49,19.44a1.78,1.78,0,0,1,1.08,1.23l13.13,54.2L223.8,121a1.79,1.79,0,0,1-.17.94l-23.26,49.27a1.81,1.81,0,0,1-1.47,1l-58,4.38Z" transform="translate(-24.78 -12.74)"/>
    <path d="M187.54,179.09a2,2,0,0,1-.34,0l-52.28-10.13a1.78,1.78,0,0,1,.68-3.5l51.08,9.9,19.14-30.47,7.83-48.94-9.09-44.27-35-23.52-41.2-11.9a1.78,1.78,0,0,1,1-3.42l41.47,12a1.89,1.89,0,0,1,.5.23l35.86,24.09a1.83,1.83,0,0,1,.75,1.12l9.3,45.29a1.72,1.72,0,0,1,0,.64l-7.93,49.62a1.93,1.93,0,0,1-.25.67l-20,31.8A1.79,1.79,0,0,1,187.54,179.09Z" transform="translate(-24.78 -12.74)"/>
    <path d="M172.21,182.1a1.66,1.66,0,0,1-.49-.07l-37.49-10.68a1.77,1.77,0,0,1-1.23-2.19,1.75,1.75,0,0,1,2.2-1.22l36.4,10.36,32.77-38.19v-51L187,55.84,149.75,26A1.78,1.78,0,1,1,152,23.2l37.49,30.1a1.89,1.89,0,0,1,.46.56l17.8,34a1.81,1.81,0,0,1,.2.82v52.07a1.79,1.79,0,0,1-.43,1.16l-33.94,39.54A1.75,1.75,0,0,1,172.21,182.1Z" transform="translate(-24.78 -12.74)"/>
    <path d="M166.74,182.78h-.2l-23.33-2.6a1.75,1.75,0,0,1-1.4-1l-7.06-14.64A1.78,1.78,0,0,1,138,163l6.62,13.76,21.69,2.41,35.39-24.34,12-33-5.39-40.67L181.79,16.77a1.78,1.78,0,0,1,3.29-1.35L211.63,80a2.2,2.2,0,0,1,.12.44l5.47,41.33a1.85,1.85,0,0,1-.09.84l-12.32,33.94a1.86,1.86,0,0,1-.66.86l-36.41,25A1.79,1.79,0,0,1,166.74,182.78Z" transform="translate(-24.78 -12.74)"/>
    <path d="M156.88,188.7a1.81,1.81,0,0,1-1.12-.4l-18.61-15.08a1.78,1.78,0,0,1,2.24-2.77l17.72,14.36,39.75-20.3,16.75-35.61L208.82,103,182.89,43.35a1.78,1.78,0,0,1,.93-2.33,1.77,1.77,0,0,1,2.34.92l26,59.8a2.22,2.22,0,0,1,.12.39l4.92,26.68a1.74,1.74,0,0,1-.14,1.08l-17.24,36.68a1.79,1.79,0,0,1-.8.83l-41.33,21.1A1.76,1.76,0,0,1,156.88,188.7Z" transform="translate(-24.78 -12.74)"/>
  </g>
</svg>
